<svg version="1.1" xmlns="http://www.w3.org/2000/svg" height="1024" width="1024" viewBox="0 0 1024 1024"><path d="M510.191675 8.711178c280.361855 0 507.644411 227.282556 507.644411 507.644411s-227.282556 507.644411-507.644411 507.644411c-280.351702 0-507.644411-227.282556-507.644411-507.644411s227.282556-507.644411 507.644411-507.644411z" fill="#FF9B2F"></path><path d="M668.982846 451.407563v242.186996a22.214519 22.214519 0 0 1-22.18406 22.194213H373.574411a22.234825 22.234825 0 0 1-22.194214-22.194213v-364.590216c0-12.224077 9.939678-22.173908 22.194214-22.173908h242.197148v-34.103552H373.574411a56.328224 56.328224 0 0 0-56.287613 56.27746v364.590216a56.34853 56.34853 0 0 0 56.287613 56.287612H646.798786a56.34853 56.34853 0 0 0 56.287612-56.287612V451.407563h-34.103552z m68.927959-127.144619c7.716195-7.726348 7.716195-20.2144 0-27.930596l-17.848778-17.848777a19.727062 19.727062 0 0 0-27.920443 0l-17.625414 17.625414 45.789526 45.76922 17.605109-17.615261z" fill="#FFFFFF"></path><path d="M512.56745 503.837078c7.716195 7.716195 49.789764-4.020544 57.505959-11.716433l136.25176-136.25176-45.76922-45.789526-136.25176 136.25176c-7.716195 7.695889-19.452934 49.789764-11.736739 57.505959zM403.586348 546.814254h111.681771a15.229332 15.229332 0 0 1 0 30.458664h-111.681771a15.229332 15.229332 0 1 1 0-30.458664zM403.586348 628.037359h203.057765a15.229332 15.229332 0 0 1 0 30.458665h-203.057765a15.229332 15.229332 0 1 1 0-30.458665z" fill="#FFFFFF"></path></svg>